<svg xmlns="http://www.w3.org/2000/svg" width="41" height="40" viewBox="0 0 41 40" fill="none"><path d="M20.2539 23.4995C18.3789 23.4995 16.7539 21.9995 16.7539 19.9995C16.7539 18.1245 18.2539 16.4995 20.2539 16.4995C22.1289 16.4995 23.7539 17.9995 23.7539 19.9995C23.7539 21.8745 22.1289 23.4995 20.2539 23.4995Z" fill="#2B1710"></path><path fill-rule="evenodd" clip-rule="evenodd" d="M24.5039 11.4995H16.0039C15.0039 11.6245 14.5039 11.7495 14.1289 11.8745C13.6289 11.9995 13.2539 12.2495 12.8789 12.6245C12.5822 12.9212 12.442 13.218 12.2725 13.5766C12.2279 13.6712 12.181 13.7702 12.1289 13.8745C12.1096 13.9325 12.0872 13.9935 12.0633 14.0589C11.9325 14.4162 11.7539 14.9042 11.7539 15.7495V24.2495C11.8789 25.2495 12.0039 25.7495 12.1289 26.1245C12.2539 26.6245 12.5039 26.9995 12.8789 27.3745C13.1756 27.6712 13.4724 27.8114 13.831 27.9809C13.9256 28.0256 14.0246 28.0723 14.1289 28.1245C14.1869 28.1438 14.2479 28.1662 14.3133 28.1901C14.6706 28.3209 15.1586 28.4995 16.0039 28.4995H24.5039C25.5039 28.3745 26.0039 28.2495 26.3789 28.1245C26.8789 27.9995 27.2539 27.7495 27.6289 27.3745C27.9256 27.0778 28.0658 26.781 28.2353 26.4224C28.28 26.3278 28.3267 26.2288 28.3789 26.1245C28.3982 26.0665 28.4206 26.0055 28.4445 25.9401C28.5753 25.5828 28.7539 25.0948 28.7539 24.2495V15.7495C28.6289 14.7495 28.5039 14.2495 28.3789 13.8745C28.2539 13.3745 28.0039 12.9995 27.6289 12.6245C27.3322 12.3278 27.0354 12.1876 26.6768 12.0181C26.5823 11.9735 26.4831 11.9266 26.3789 11.8745C26.3209 11.8552 26.2599 11.8328 26.1945 11.8089C25.8372 11.6781 25.3492 11.4995 24.5039 11.4995ZM20.2539 14.6245C17.2539 14.6245 14.8789 16.9995 14.8789 19.9995C14.8789 22.9995 17.2539 25.3745 20.2539 25.3745C23.2539 25.3745 25.6289 22.9995 25.6289 19.9995C25.6289 16.9995 23.2539 14.6245 20.2539 14.6245ZM27.0039 14.4995C27.0039 15.1899 26.4443 15.7495 25.7539 15.7495C25.0636 15.7495 24.5039 15.1899 24.5039 14.4995C24.5039 13.8092 25.0636 13.2495 25.7539 13.2495C26.4443 13.2495 27.0039 13.8092 27.0039 14.4995Z" fill="#2B1710"></path><path fill-rule="evenodd" clip-rule="evenodd" d="M0.253906 19.9995C0.253906 8.95382 9.20821 -0.000488281 20.2539 -0.000488281C31.2996 -0.000488281 40.2539 8.95382 40.2539 19.9995C40.2539 31.0452 31.2996 39.9995 20.2539 39.9995C9.20821 39.9995 0.253906 31.0452 0.253906 19.9995ZM16.0039 9.62451H24.5039C25.6289 9.74951 26.3789 9.87451 27.0039 10.1245C27.7539 10.4995 28.2539 10.7495 28.8789 11.3745C29.5039 11.9995 29.8789 12.6245 30.1289 13.2495C30.3789 13.8745 30.6289 14.6245 30.6289 15.7495V24.2495C30.5039 25.3745 30.3789 26.1245 30.1289 26.7495C29.7539 27.4995 29.5039 27.9995 28.8789 28.6245C28.2539 29.2495 27.6289 29.6245 27.0039 29.8745C26.3789 30.1245 25.6289 30.3745 24.5039 30.3745H16.0039C14.8789 30.2495 14.1289 30.1245 13.5039 29.8745C12.7539 29.4995 12.2539 29.2495 11.6289 28.6245C11.0039 27.9995 10.6289 27.3745 10.3789 26.7495C10.1289 26.1245 9.87891 25.3745 9.87891 24.2495V15.7495C10.0039 14.6245 10.1289 13.8745 10.3789 13.2495C10.7539 12.4995 11.0039 11.9995 11.6289 11.3745C12.2539 10.7495 12.8789 10.3745 13.5039 10.1245C14.1289 9.87451 14.8789 9.62451 16.0039 9.62451Z" fill="#2B1710"></path></svg>