<svg xmlns="http://www.w3.org/2000/svg" width="123" height="110" viewBox="0 0 123 110" fill="none"><path d="M91.0882 59.5798L99.6807 40.4852C101.567 36.2941 99.6922 31.3521 95.5009 29.4661L38.5057 3.81854C34.3146 1.93257 29.3729 3.80706 27.4868 7.99835L10.3885 45.9951C8.5025 50.1862 10.3769 55.1282 14.5682 57.0142L57.1748 76.1869C55.7229 86.0653 60.878 96.1297 70.4236 100.425C74.0971 102.078 78.1443 102.737 82.1335 102.33C83.2771 102.213 84.1115 101.192 83.9935 100.046C83.8775 98.9007 82.8554 98.0636 81.7093 98.1861C78.45 98.5177 75.1388 97.978 72.1332 96.6255C62.7044 92.3825 58.4861 81.2612 62.7289 71.8326C66.9718 62.404 78.0931 58.1855 87.5218 62.4283C96.9504 66.6712 101.169 77.7925 96.9261 87.2211L96.0711 89.1211C95.1286 91.2156 92.6563 92.1534 90.5617 91.2109C88.4671 90.2683 87.5293 87.796 88.4719 85.7014L91.8916 78.102C92.004 77.8525 92.0662 77.5833 92.0746 77.3098C92.0829 77.0363 92.0372 76.7638 91.9402 76.508C91.8431 76.2521 91.6966 76.0179 91.5089 75.8187C91.3213 75.6195 91.0962 75.4593 90.8466 75.3472C90.3356 75.1172 89.7834 75.1174 89.2949 75.2914C88.289 73.0395 86.5228 71.1169 84.1021 70.0276C78.8646 67.6707 72.6853 70.0146 70.3284 75.2521C67.9716 80.4897 70.3154 86.6692 75.5531 89.0261C78.3844 90.3002 81.4733 90.1629 84.1025 88.9749C84.599 91.5493 86.2843 93.8551 88.8521 95.0106C93.0432 96.8965 97.9849 95.022 99.871 90.8308L100.726 88.9309C105.623 78.0489 101.289 65.3299 91.0882 59.5798ZM36.7961 7.61824L93.7913 33.2658C93.8704 33.3014 93.9185 33.3716 93.9943 33.4115L56.8039 43.483C55.5635 43.6567 54.2194 42.9 53.7641 42.2312L36.5549 7.56366C36.6341 7.59374 36.7177 7.58298 36.7961 7.61824ZM87.2886 57.87C76.2195 54.0486 63.8262 59.2407 58.9293 70.1228C58.6408 70.764 58.3958 71.4137 58.1705 72.066L16.278 53.2146C14.1834 52.272 13.2456 49.7997 14.1882 47.7052L31.2866 9.70824C31.5287 9.17016 31.8762 8.71548 32.2877 8.34253L50.1436 44.2833C50.9246 45.5025 52.0243 46.4549 53.3249 47.0402C54.5754 47.6029 55.9566 47.8005 57.3333 47.6169C57.4682 47.6075 57.6018 47.5847 57.7321 47.5488L96.2392 37.1199C96.233 37.6757 96.1234 38.2374 95.8811 38.7756L87.2887 57.8701L87.2886 57.87ZM77.2629 85.2265C74.12 83.8122 72.7139 80.1051 74.1282 76.9622C75.5425 73.8193 79.2495 72.4131 82.3924 73.8274C85.5354 75.2418 86.9415 78.9488 85.5272 82.0917C84.1129 85.2347 80.4059 86.6408 77.2629 85.2265Z" fill="#FFB754"/></svg>