<svg xmlns="http://www.w3.org/2000/svg" width="41" height="40" viewBox="0 0 41 40" fill="none"><path fill-rule="evenodd" clip-rule="evenodd" d="M20.2539 40.0006C9.20821 40.0006 0.253906 31.046 0.253906 20C0.253906 8.95405 9.20821 -0.000488281 20.2539 -0.000488281C31.2996 -0.000488281 40.2539 8.95405 40.2539 20C40.2539 31.046 31.2996 40.0006 20.2539 40.0006ZM21.1187 15.0091C19.3275 15.7542 15.7475 17.2963 10.3788 19.6354C9.50701 19.9821 9.05033 20.3213 9.00875 20.6529C8.93849 21.2134 9.64034 21.4341 10.5961 21.7346C10.7261 21.7755 10.8608 21.8178 10.9989 21.8627C11.9392 22.1684 13.2041 22.526 13.8616 22.5402C14.4581 22.5531 15.1238 22.3072 15.8588 21.8025C20.8749 18.4163 23.4643 16.7048 23.6268 16.6679C23.7415 16.6419 23.9004 16.6092 24.0081 16.7049C24.1158 16.8006 24.1052 16.9818 24.0938 17.0305C24.0243 17.3269 21.2693 19.8883 19.8435 21.2138C19.3991 21.627 19.0838 21.9201 19.0194 21.9871C18.875 22.137 18.7278 22.2789 18.5864 22.4152C17.7129 23.2574 17.0578 23.8889 18.6227 24.9202C19.3747 25.4158 19.9765 25.8256 20.5769 26.2344C21.2325 26.681 21.8865 27.1263 22.7326 27.681C22.9481 27.8223 23.154 27.969 23.3545 28.112C24.1176 28.656 24.8031 29.1447 25.65 29.0668C26.1421 29.0215 26.6504 28.5587 26.9085 27.1786C27.5186 23.917 28.7179 16.8501 28.995 13.938C29.0193 13.6828 28.9888 13.3563 28.9642 13.213C28.9397 13.0696 28.8884 12.8654 28.7021 12.7142C28.4815 12.5352 28.1408 12.4974 27.9885 12.5C27.2958 12.5123 26.2331 12.8818 21.1187 15.0091Z" fill="#2B1710"></path></svg>