<svg xmlns="http://www.w3.org/2000/svg" width="41" height="41" viewBox="0 0 41 41" fill="none"><path fill-rule="evenodd" clip-rule="evenodd" d="M16.0039 27.2192C17.2539 27.9692 18.7539 28.3442 20.2539 28.3442C24.8789 28.3442 28.5039 24.5941 28.5039 20.219C28.5039 17.969 27.7539 15.9689 26.1289 14.3439C24.5039 12.8438 22.5039 11.9688 20.2539 11.9688C15.7539 11.9688 12.0039 15.7189 12.0039 20.219C12.0039 21.7191 12.3789 23.2191 13.2539 24.5941L13.5039 24.9692L12.6289 27.9692L15.7539 27.0942L16.0039 27.2192ZM23.0039 21.3441C23.2539 21.3441 24.5039 21.9691 24.7539 22.0941C24.7928 22.1135 24.8318 22.13 24.8702 22.1462C25.0787 22.2342 25.2734 22.3164 25.3789 22.8441C25.5039 22.8441 25.5039 23.3441 25.2539 23.9691C25.1289 24.4691 24.1289 25.0942 23.6289 25.0942C23.5442 25.0942 23.4631 25.1013 23.3764 25.109C22.9516 25.1466 22.3939 25.1959 20.6289 24.4691C18.4383 23.5929 16.9195 21.469 16.4931 20.8725C16.4328 20.7883 16.3944 20.7345 16.3789 20.719C16.3576 20.6765 16.3146 20.6086 16.2578 20.519C15.9813 20.0823 15.3789 19.1312 15.3789 18.094C15.3789 16.8439 16.0039 16.2189 16.2539 15.9689C16.5039 15.7189 16.7539 15.7189 16.8789 15.7189H17.3789C17.5039 15.7189 17.7539 15.7189 17.8789 16.0939C18.1289 16.5939 18.6289 17.844 18.6289 17.969C18.6289 18.0106 18.6428 18.0523 18.6567 18.094C18.6845 18.1773 18.7123 18.2606 18.6289 18.344C18.5664 18.4065 18.5352 18.469 18.5039 18.5315C18.4727 18.594 18.4414 18.6565 18.3789 18.719L18.0039 19.094C17.8789 19.219 17.7539 19.344 17.8789 19.594C18.0039 19.844 18.5039 20.719 19.2539 21.3441C20.0978 22.0825 20.7636 22.3758 21.1012 22.5245C21.1637 22.552 21.2149 22.5746 21.2539 22.5941C21.5039 22.5941 21.6289 22.5941 21.7539 22.4691C21.8164 22.3441 21.9727 22.1566 22.1289 21.9691C22.2851 21.7816 22.4414 21.5941 22.5039 21.4691C22.6289 21.2191 22.7539 21.2191 23.0039 21.3441Z" fill="#2B1710"></path><path fill-rule="evenodd" clip-rule="evenodd" d="M0.253906 20.094C0.253906 9.04805 9.20821 0.0935059 20.2539 0.0935059C31.2996 0.0935059 40.2539 9.04805 40.2539 20.094C40.2539 31.14 31.2996 40.0946 20.2539 40.0946C9.20821 40.0946 0.253906 31.14 0.253906 20.094ZM20.2539 10.0938C22.8789 10.0938 25.3789 11.0938 27.2539 12.9688C29.1289 14.8439 30.2539 17.344 30.2539 19.969C30.2539 25.4692 25.7539 29.9693 20.2539 29.9693C18.6289 29.9693 17.0039 29.4693 15.5039 28.7193L10.2539 30.0943L11.6289 25.0942C10.7539 23.5941 10.2539 21.8441 10.2539 20.094C10.2539 14.5939 14.7539 10.0938 20.2539 10.0938Z" fill="#2B1710"></path></svg>